# xmcd
#
# Track frame offsets:
#	150
#	14845
#	28175
#	40935
#	58407
#	76260
#	87732
#	99125
#	112100
#	116140
#	122935
#
# Disc length: 1957 seconds
#
# Revision: 7
# Processed by: cddbd v1.5.2PL0 Copyright (c) Steve Scherf et al.
# Submitted via: EZCDAudioConverter 2.1.7.1
#
DISCID=9d07a30b
DTITLE=V/A - The Muppet Movie
DYEAR=1979
DGENRE=
TTITLE0=Kermit - Rainbow Connection
TTITLE1=Kermit and Fozzie - Movin' Right Along
TTITLE2=Miss Piggy - Never Before, Never Again
TTITLE3=Never Before, Never Again [Instrumental]
TTITLE4=Kermit and Rowlf - I Hope That Somethin' Better Comes Along
TTITLE5=Dr. Teeth and The Electric Mayhem - Can You Picture That?
TTITLE6=I Hope That Somethin' Better Comes Along [Instrumental]
TTITLE7=Gonzo - I'm Going To Go Back There Someday
TTITLE8=Fozzie - America
TTITLE9=Animal... Come Back Animal [Instrumental]
TTITLE10=The Muppets - Finale: The Magic Store
EXTD=
EXTT0=
EXTT1=
EXTT2=
EXTT3=
EXTT4=
EXTT5=
EXTT6=
EXTT7=
EXTT8=
EXTT9=
EXTT10=
PLAYORDER=
